<svg width="15" height="15" viewBox="0 0 15 15" fill="none" xmlns="http://www.w3.org/2000/svg">
<path d="M0.416016 13.166H14.5827V14.5827H0.416016V13.166ZM1.83268 7.49935H3.24935V12.4577H1.83268V7.49935ZM5.37435 7.49935H6.79102V12.4577H5.37435V7.49935ZM8.20768 7.49935H9.62435V12.4577H8.20768V7.49935ZM11.7494 7.49935H13.166V12.4577H11.7494V7.49935ZM0.416016 3.95768L7.49935 0.416016L14.5827 3.95768V6.79102H0.416016V3.95768ZM1.83268 4.83318V5.37435H13.166V4.83318L7.49935 1.99985L1.83268 4.83318ZM7.49935 4.66602C7.31149 4.66602 7.13132 4.59139 6.99848 4.45855C6.86564 4.32571 6.79102 4.14554 6.79102 3.95768C6.79102 3.76982 6.86564 3.58965 6.99848 3.45682C7.13132 3.32398 7.31149 3.24935 7.49935 3.24935C7.68721 3.24935 7.86738 3.32398 8.00022 3.45682C8.13306 3.58965 8.20768 3.76982 8.20768 3.95768C8.20768 4.14554 8.13306 4.32571 8.00022 4.45855C7.86738 4.59139 7.68721 4.66602 7.49935 4.66602Z" fill="#414BBE"/>
</svg>
