<svg width="40" height="40" viewBox="0 0 40 40" fill="none" xmlns="http://www.w3.org/2000/svg">
<path d="M19.9997 31.666C20.3293 31.666 20.6515 31.5683 20.9256 31.3851C21.1997 31.202 21.4133 30.9417 21.5395 30.6372C21.6656 30.3326 21.6986 29.9975 21.6343 29.6742C21.57 29.3509 21.4113 29.0539 21.1782 28.8208C20.9451 28.5877 20.6481 28.429 20.3248 28.3647C20.0015 28.3004 19.6664 28.3334 19.3619 28.4595C19.0573 28.5857 18.797 28.7993 18.6139 29.0734C18.4308 29.3475 18.333 29.6697 18.333 29.9993C18.333 30.4414 18.5086 30.8653 18.8212 31.1779C19.1337 31.4904 19.5576 31.666 19.9997 31.666ZM28.333 31.666C28.6626 31.666 28.9849 31.5683 29.259 31.3851C29.533 31.202 29.7467 30.9417 29.8728 30.6372C29.999 30.3326 30.032 29.9975 29.9677 29.6742C29.9033 29.3509 29.7446 29.0539 29.5115 28.8208C29.2784 28.5877 28.9815 28.429 28.6582 28.3647C28.3349 28.3004 27.9997 28.3334 27.6952 28.4595C27.3907 28.5857 27.1304 28.7993 26.9472 29.0734C26.7641 29.3475 26.6663 29.6697 26.6663 29.9993C26.6663 30.4414 26.8419 30.8653 27.1545 31.1779C27.4671 31.4904 27.891 31.666 28.333 31.666ZM28.333 24.9993C28.6626 24.9993 28.9849 24.9016 29.259 24.7185C29.533 24.5353 29.7467 24.275 29.8728 23.9705C29.999 23.6659 30.032 23.3308 29.9677 23.0075C29.9033 22.6842 29.7446 22.3873 29.5115 22.1542C29.2784 21.9211 28.9815 21.7623 28.6582 21.698C28.3349 21.6337 27.9997 21.6667 27.6952 21.7929C27.3907 21.919 27.1304 22.1326 26.9472 22.4067C26.7641 22.6808 26.6663 23.003 26.6663 23.3327C26.6663 23.7747 26.8419 24.1986 27.1545 24.5112C27.4671 24.8238 27.891 24.9993 28.333 24.9993ZM19.9997 24.9993C20.3293 24.9993 20.6515 24.9016 20.9256 24.7185C21.1997 24.5353 21.4133 24.275 21.5395 23.9705C21.6656 23.6659 21.6986 23.3308 21.6343 23.0075C21.57 22.6842 21.4113 22.3873 21.1782 22.1542C20.9451 21.9211 20.6481 21.7623 20.3248 21.698C20.0015 21.6337 19.6664 21.6667 19.3619 21.7929C19.0573 21.919 18.797 22.1326 18.6139 22.4067C18.4308 22.6808 18.333 23.003 18.333 23.3327C18.333 23.7747 18.5086 24.1986 18.8212 24.5112C19.1337 24.8238 19.5576 24.9993 19.9997 24.9993ZM31.6663 4.99935H29.9997V3.33268C29.9997 2.89065 29.8241 2.46673 29.5115 2.15417C29.199 1.84161 28.775 1.66602 28.333 1.66602C27.891 1.66602 27.4671 1.84161 27.1545 2.15417C26.8419 2.46673 26.6663 2.89065 26.6663 3.33268V4.99935H13.333V3.33268C13.333 2.89065 13.1574 2.46673 12.8449 2.15417C12.5323 1.84161 12.1084 1.66602 11.6663 1.66602C11.2243 1.66602 10.8004 1.84161 10.4878 2.15417C10.1753 2.46673 9.99967 2.89065 9.99967 3.33268V4.99935H8.33301C7.00693 4.99935 5.73516 5.52613 4.79747 6.46381C3.85979 7.4015 3.33301 8.67327 3.33301 9.99935V33.3327C3.33301 34.6588 3.85979 35.9305 4.79747 36.8682C5.73516 37.8059 7.00693 38.3327 8.33301 38.3327H31.6663C32.9924 38.3327 34.2642 37.8059 35.2019 36.8682C36.1396 35.9305 36.6663 34.6588 36.6663 33.3327V9.99935C36.6663 8.67327 36.1396 7.4015 35.2019 6.46381C34.2642 5.52613 32.9924 4.99935 31.6663 4.99935ZM33.333 33.3327C33.333 33.7747 33.1574 34.1986 32.8449 34.5112C32.5323 34.8238 32.1084 34.9993 31.6663 34.9993H8.33301C7.89098 34.9993 7.46706 34.8238 7.1545 34.5112C6.84194 34.1986 6.66634 33.7747 6.66634 33.3327V18.3327H33.333V33.3327ZM33.333 14.9993H6.66634V9.99935C6.66634 9.55732 6.84194 9.1334 7.1545 8.82084C7.46706 8.50828 7.89098 8.33268 8.33301 8.33268H9.99967V9.99935C9.99967 10.4414 10.1753 10.8653 10.4878 11.1779C10.8004 11.4904 11.2243 11.666 11.6663 11.666C12.1084 11.666 12.5323 11.4904 12.8449 11.1779C13.1574 10.8653 13.333 10.4414 13.333 9.99935V8.33268H26.6663V9.99935C26.6663 10.4414 26.8419 10.8653 27.1545 11.1779C27.4671 11.4904 27.891 11.666 28.333 11.666C28.775 11.666 29.199 11.4904 29.5115 11.1779C29.8241 10.8653 29.9997 10.4414 29.9997 9.99935V8.33268H31.6663C32.1084 8.33268 32.5323 8.50828 32.8449 8.82084C33.1574 9.1334 33.333 9.55732 33.333 9.99935V14.9993ZM11.6663 24.9993C11.996 24.9993 12.3182 24.9016 12.5923 24.7185C12.8664 24.5353 13.08 24.275 13.2061 23.9705C13.3323 23.6659 13.3653 23.3308 13.301 23.0075C13.2367 22.6842 13.0779 22.3873 12.8449 22.1542C12.6118 21.9211 12.3148 21.7623 11.9915 21.698C11.6682 21.6337 11.3331 21.6667 11.0285 21.7929C10.724 21.919 10.4637 22.1326 10.2806 22.4067C10.0974 22.6808 9.99967 23.003 9.99967 23.3327C9.99967 23.7747 10.1753 24.1986 10.4878 24.5112C10.8004 24.8238 11.2243 24.9993 11.6663 24.9993ZM11.6663 31.666C11.996 31.666 12.3182 31.5683 12.5923 31.3851C12.8664 31.202 13.08 30.9417 13.2061 30.6372C13.3323 30.3326 13.3653 29.9975 13.301 29.6742C13.2367 29.3509 13.0779 29.0539 12.8449 28.8208C12.6118 28.5877 12.3148 28.429 11.9915 28.3647C11.6682 28.3004 11.3331 28.3334 11.0285 28.4595C10.724 28.5857 10.4637 28.7993 10.2806 29.0734C10.0974 29.3475 9.99967 29.6697 9.99967 29.9993C9.99967 30.4414 10.1753 30.8653 10.4878 31.1779C10.8004 31.4904 11.2243 31.666 11.6663 31.666Z" fill="#414BBE"/>
</svg>
