<svg width="33" height="25" viewBox="0 0 33 25" fill="none" xmlns="http://www.w3.org/2000/svg">
<path d="M32.4354 11.9989H29.6435C30.8042 9.36394 30.6787 7.23086 30.2395 5.7879C29.4867 3.21565 26.9458 0.423828 23.1816 0.423828C22.1778 0.423828 21.174 0.612041 20.1388 0.988467C18.3508 1.64721 17.1587 2.36869 16.6255 2.74512C16.0922 2.36869 14.9316 1.64721 13.1122 0.988467C12.077 0.612041 11.0418 0.423828 10.0694 0.423828C6.30513 0.423828 3.76426 3.21565 3.01141 5.7879C2.57224 7.32497 2.4154 9.64626 3.88973 12.5636H0.501901C0.219582 12.5636 0 12.7831 0 13.0655C0 13.3478 0.219582 13.5674 0.501901 13.5674H4.48574C4.64259 13.8497 4.8308 14.132 5.05038 14.4143C8.31274 19.1196 15.4021 24.2328 16.6882 24.5465V24.5778C16.6882 24.5778 16.7196 24.5778 16.751 24.5465C16.7823 24.5465 16.8137 24.5465 16.8451 24.5465V24.5151C17.943 23.9818 24.75 19.5902 28.326 14.383C28.6711 13.9124 28.9534 13.4419 29.2044 12.9714H32.4981C32.7804 12.9714 33 12.7518 33 12.4695C33 12.1871 32.7177 11.9989 32.4354 11.9989ZM27.4164 13.8497C24.0913 18.7119 17.9743 22.633 16.6568 23.4799C15.308 22.633 9.22243 18.6805 5.86597 13.8497C5.80323 13.7556 5.74049 13.6615 5.67776 13.5674H10.289C10.4772 13.5674 10.6654 13.4733 10.7595 13.285L12.8612 9.14436L16.1549 17.5826C16.2177 17.7708 16.4373 17.8963 16.6255 17.8963C16.6255 17.8963 16.6255 17.8963 16.6568 17.8963C16.8764 17.8963 17.0646 17.7394 17.1274 17.5198L20.0133 7.63866L21.5504 12.6263C21.6131 12.8145 21.77 12.94 21.9582 12.9714C22.1464 13.0027 22.3346 12.9086 22.4601 12.7518L23.6835 10.9638L24.7186 12.7204C24.8127 12.8772 24.9696 12.9714 25.1578 12.9714H27.981C27.7928 13.285 27.6046 13.5674 27.4164 13.8497ZM28.5456 11.9989H25.4715L24.1854 9.80311C24.0913 9.64626 23.9344 9.55216 23.7462 9.55216C23.558 9.55216 23.4011 9.61489 23.307 9.77174L22.2405 11.3402L20.5152 5.72516C20.4525 5.50558 20.2329 5.3801 20.0133 5.34873C19.7937 5.34873 19.5741 5.50558 19.5114 5.72516L16.5941 15.7946L13.4259 7.70139C13.3631 7.51318 13.1749 7.38771 12.9867 7.38771C12.7671 7.38771 12.6103 7.48181 12.5162 7.67003L10.038 12.5322H5.05038C3.79563 10.2423 3.45057 8.04645 4.01521 6.07022C4.67395 3.84303 6.8384 1.459 10.1008 1.459C10.9791 1.459 11.8888 1.64721 12.7985 1.9609C15.0884 2.80786 16.3118 3.78029 16.3432 3.78029C16.5314 3.93714 16.7823 3.93714 16.9705 3.78029C16.9705 3.78029 18.1939 2.80786 20.5152 1.9609C21.4249 1.61584 22.3346 1.459 23.2129 1.459C26.4439 1.459 28.6397 3.84303 29.2985 6.07022C29.8318 7.88961 29.5494 9.89721 28.5456 11.9989Z" fill="white"/>
</svg>
