<svg width="21" height="21" viewBox="0 0 21 21" fill="none" xmlns="http://www.w3.org/2000/svg">
<path d="M20 5H17V1C17 0.4 16.6 0 16 0H5C4.4 0 4 0.4 4 1V5H1C0.4 5 0 5.4 0 6V20C0 20.6 0.4 21 1 21H20C20.6 21 21 20.6 21 20V6C21 5.4 20.6 5 20 5ZM6 17H5C4.4 17 4 16.6 4 16C4 15.4 4.4 15 5 15H6C6.6 15 7 15.4 7 16C7 16.6 6.6 17 6 17ZM6 13H5C4.4 13 4 12.6 4 12C4 11.4 4.4 11 5 11H6C6.6 11 7 11.4 7 12C7 12.6 6.6 13 6 13ZM11 17H10C9.4 17 9 16.6 9 16C9 15.4 9.4 15 10 15H11C11.6 15 12 15.4 12 16C12 16.6 11.6 17 11 17ZM11 13H10C9.4 13 9 12.6 9 12C9 11.4 9.4 11 10 11H11C11.6 11 12 11.4 12 12C12 12.6 11.6 13 11 13ZM12 7.5H11.5V8C11.5 8.6 11.1 9 10.5 9C9.9 9 9.5 8.6 9.5 8V7.5H9C8.4 7.5 8 7.1 8 6.5C8 5.9 8.4 5.5 9 5.5H9.5V5C9.5 4.4 9.9 4 10.5 4C11.1 4 11.5 4.4 11.5 5V5.5H12C12.6 5.5 13 5.9 13 6.5C13 7.1 12.6 7.5 12 7.5ZM16 17H15C14.4 17 14 16.6 14 16C14 15.4 14.4 15 15 15H16C16.6 15 17 15.4 17 16C17 16.6 16.6 17 16 17ZM16 13H15C14.4 13 14 12.6 14 12C14 11.4 14.4 11 15 11H16C16.6 11 17 11.4 17 12C17 12.6 16.6 13 16 13Z" fill="#414BBE"/>
</svg>
