<svg width="22" height="22" viewBox="0 0 22 22" fill="none" xmlns="http://www.w3.org/2000/svg">
<path d="M20.5 5.5H17.5V1.5C17.5 0.9 17.1 0.5 16.5 0.5H5.5C4.9 0.5 4.5 0.9 4.5 1.5V5.5H1.5C0.9 5.5 0.5 5.9 0.5 6.5V20.5C0.5 21.1 0.9 21.5 1.5 21.5H20.5C21.1 21.5 21.5 21.1 21.5 20.5V6.5C21.5 5.9 21.1 5.5 20.5 5.5ZM6.5 17.5H5.5C4.9 17.5 4.5 17.1 4.5 16.5C4.5 15.9 4.9 15.5 5.5 15.5H6.5C7.1 15.5 7.5 15.9 7.5 16.5C7.5 17.1 7.1 17.5 6.5 17.5ZM6.5 13.5H5.5C4.9 13.5 4.5 13.1 4.5 12.5C4.5 11.9 4.9 11.5 5.5 11.5H6.5C7.1 11.5 7.5 11.9 7.5 12.5C7.5 13.1 7.1 13.5 6.5 13.5ZM11.5 17.5H10.5C9.9 17.5 9.5 17.1 9.5 16.5C9.5 15.9 9.9 15.5 10.5 15.5H11.5C12.1 15.5 12.5 15.9 12.5 16.5C12.5 17.1 12.1 17.5 11.5 17.5ZM11.5 13.5H10.5C9.9 13.5 9.5 13.1 9.5 12.5C9.5 11.9 9.9 11.5 10.5 11.5H11.5C12.1 11.5 12.5 11.9 12.5 12.5C12.5 13.1 12.1 13.5 11.5 13.5ZM12.5 8H12V8.5C12 9.1 11.6 9.5 11 9.5C10.4 9.5 10 9.1 10 8.5V8H9.5C8.9 8 8.5 7.6 8.5 7C8.5 6.4 8.9 6 9.5 6H10V5.5C10 4.9 10.4 4.5 11 4.5C11.6 4.5 12 4.9 12 5.5V6H12.5C13.1 6 13.5 6.4 13.5 7C13.5 7.6 13.1 8 12.5 8ZM16.5 17.5H15.5C14.9 17.5 14.5 17.1 14.5 16.5C14.5 15.9 14.9 15.5 15.5 15.5H16.5C17.1 15.5 17.5 15.9 17.5 16.5C17.5 17.1 17.1 17.5 16.5 17.5ZM16.5 13.5H15.5C14.9 13.5 14.5 13.1 14.5 12.5C14.5 11.9 14.9 11.5 15.5 11.5H16.5C17.1 11.5 17.5 11.9 17.5 12.5C17.5 13.1 17.1 13.5 16.5 13.5Z" fill="#414BBE" fill-opacity="0.15"/>
</svg>
