<svg width="40" height="40" viewBox="0 0 40 40" fill="none" xmlns="http://www.w3.org/2000/svg">
<path d="M21.667 23.334H15.0003C14.5583 23.334 14.1344 23.5096 13.8218 23.8221C13.5093 24.1347 13.3337 24.5586 13.3337 25.0007C13.3337 25.4427 13.5093 25.8666 13.8218 26.1792C14.1344 26.4917 14.5583 26.6673 15.0003 26.6673H21.667C22.109 26.6673 22.5329 26.4917 22.8455 26.1792C23.1581 25.8666 23.3337 25.4427 23.3337 25.0007C23.3337 24.5586 23.1581 24.1347 22.8455 23.8221C22.5329 23.5096 22.109 23.334 21.667 23.334ZM28.3337 6.66732H26.367C26.0231 5.69474 25.3869 4.85232 24.5454 4.25555C23.704 3.65878 22.6986 3.33688 21.667 3.33398H18.3337C17.3021 3.33688 16.2967 3.65878 15.4552 4.25555C14.6138 4.85232 13.9775 5.69474 13.6337 6.66732H11.667C10.3409 6.66732 9.06914 7.1941 8.13146 8.13178C7.19378 9.06947 6.66699 10.3412 6.66699 11.6673V31.6673C6.66699 32.9934 7.19378 34.2652 8.13146 35.2029C9.06914 36.1405 10.3409 36.6673 11.667 36.6673H28.3337C29.6597 36.6673 30.9315 36.1405 31.8692 35.2029C32.8069 34.2652 33.3337 32.9934 33.3337 31.6673V11.6673C33.3337 10.3412 32.8069 9.06947 31.8692 8.13178C30.9315 7.1941 29.6597 6.66732 28.3337 6.66732ZM16.667 8.33398C16.667 7.89196 16.8426 7.46803 17.1551 7.15547C17.4677 6.84291 17.8916 6.66732 18.3337 6.66732H21.667C22.109 6.66732 22.5329 6.84291 22.8455 7.15547C23.1581 7.46803 23.3337 7.89196 23.3337 8.33398V10.0007H16.667V8.33398ZM30.0003 31.6673C30.0003 32.1093 29.8247 32.5333 29.5122 32.8458C29.1996 33.1584 28.7757 33.334 28.3337 33.334H11.667C11.225 33.334 10.801 33.1584 10.4885 32.8458C10.1759 32.5333 10.0003 32.1093 10.0003 31.6673V11.6673C10.0003 11.2253 10.1759 10.8014 10.4885 10.4888C10.801 10.1762 11.225 10.0007 11.667 10.0007H13.3337V11.6673C13.3337 12.1093 13.5093 12.5333 13.8218 12.8458C14.1344 13.1584 14.5583 13.334 15.0003 13.334H25.0003C25.4424 13.334 25.8663 13.1584 26.1788 12.8458C26.4914 12.5333 26.667 12.1093 26.667 11.6673V10.0007H28.3337C28.7757 10.0007 29.1996 10.1762 29.5122 10.4888C29.8247 10.8014 30.0003 11.2253 30.0003 11.6673V31.6673ZM25.0003 16.6673H15.0003C14.5583 16.6673 14.1344 16.8429 13.8218 17.1555C13.5093 17.468 13.3337 17.892 13.3337 18.334C13.3337 18.776 13.5093 19.1999 13.8218 19.5125C14.1344 19.8251 14.5583 20.0007 15.0003 20.0007H25.0003C25.4424 20.0007 25.8663 19.8251 26.1788 19.5125C26.4914 19.1999 26.667 18.776 26.667 18.334C26.667 17.892 26.4914 17.468 26.1788 17.1555C25.8663 16.8429 25.4424 16.6673 25.0003 16.6673Z" fill="#414BBE"/>
</svg>
