<svg width="15" height="13" viewBox="0 0 15 13" fill="none" xmlns="http://www.w3.org/2000/svg">
<path d="M1.12435 0.125H13.8743C14.0622 0.125 14.2424 0.199628 14.3752 0.332466C14.5081 0.465304 14.5827 0.645472 14.5827 0.833333V12.1667C14.5827 12.3545 14.5081 12.5347 14.3752 12.6675C14.2424 12.8004 14.0622 12.875 13.8743 12.875H1.12435C0.936487 12.875 0.75632 12.8004 0.623482 12.6675C0.490643 12.5347 0.416016 12.3545 0.416016 12.1667V0.833333C0.416016 0.645472 0.490643 0.465304 0.623482 0.332466C0.75632 0.199628 0.936487 0.125 1.12435 0.125ZM13.166 5.79167H1.83268V11.4583H13.166V5.79167ZM13.166 4.375V1.54167H1.83268V4.375H13.166ZM8.91602 8.625H11.7493V10.0417H8.91602V8.625Z" fill="#414BBE"/>
</svg>
