<svg width="28" height="30" viewBox="0 0 28 30" fill="none" xmlns="http://www.w3.org/2000/svg">
<path d="M2.80109 15.682C4.13984 18.307 5.15516 20.6859 5.97078 22.5989C7.68969 26.6297 8.72703 29.0625 10.7188 29.0625C12.8314 29.0625 13.0625 27.4111 13.0625 23.9062C13.0625 19.5712 13.4872 19.2188 14 19.2188C14.5128 19.2188 14.9375 19.5712 14.9375 23.9062C14.9375 27.4111 15.1686 29.0625 17.2812 29.0625C19.273 29.0625 20.3103 26.6297 22.0292 22.5989C22.8448 20.6859 23.8602 18.3056 25.1989 15.682L25.3559 15.3745C26.1875 13.7587 27.125 11.9269 27.125 9.84375C27.125 4.84969 23.8306 0.9375 19.625 0.9375C18.0038 0.955985 16.4291 1.48149 15.1217 2.44031C14.7874 2.65625 14.398 2.77112 14 2.77112C13.602 2.77112 13.2126 2.65625 12.8783 2.44031C11.5709 1.48149 9.99618 0.955985 8.375 0.9375C4.16937 0.9375 0.875 4.84969 0.875 9.84375C0.875 11.9269 1.81484 13.7587 2.64406 15.375L2.80109 15.682ZM8.375 1.875C9.79095 1.89031 11.1666 2.34827 12.3092 3.18469C13.6932 4.09778 15.3237 4.56514 16.9813 4.52391C18.152 4.51715 19.314 4.3207 20.4219 3.94219L20.1252 3.05156C18.5801 3.60005 16.9167 3.72675 15.3064 3.41859C15.4418 3.35334 15.5704 3.27483 15.6903 3.18422C16.8331 2.34787 18.2089 1.89008 19.625 1.875C23.3052 1.875 26.1875 5.37516 26.1875 9.84375C26.1875 11.7005 25.3025 13.425 24.522 14.9466L24.3636 15.2555C23.0103 17.9086 21.9884 20.3053 21.1672 22.2309C19.6536 25.7812 18.6537 28.125 17.2812 28.125C16.2608 28.125 15.875 27.7612 15.875 23.9062C15.875 19.9397 15.6144 18.2812 14 18.2812C12.3856 18.2812 12.125 19.9397 12.125 23.9062C12.125 27.7612 11.7392 28.125 10.7188 28.125C9.34625 28.125 8.34641 25.7812 6.83281 22.2309C6.01156 20.3053 4.98969 17.9086 3.63641 15.2555L3.47797 14.9466C2.6975 13.425 1.8125 11.7005 1.8125 9.84375C1.8125 5.37516 4.69484 1.875 8.375 1.875Z" fill="white"/>
</svg>
