<svg width="20" height="20" viewBox="0 0 20 20" fill="none" xmlns="http://www.w3.org/2000/svg">
<path d="M19.8 8C19.4 6.8 18.2 6 17 6C15.3 6 14 7.3 14 9C14 10.3 14.8 11.4 16 11.8V13.5C16 16 14 18 11.5 18C9 18 7 16 7 13.5V12.5L10.1 10C11.3 9 12 7.6 12 6.1V1C12 0.4 11.6 0 11 0H9C8.4 0 8 0.4 8 1C8 1.6 8.4 2 9 2H10V6.1C10 7 9.6 7.9 8.9 8.4L6 10.7L3.1 8.4C2.4 7.9 2 7 2 6.1V2H3C3.6 2 4 1.6 4 1C4 0.4 3.6 0 3 0H1C0.4 0 0 0.4 0 1V6.1C0 7.6 0.7 9.1 1.9 10L5 12.5V13.5C5 17.1 7.9 20 11.5 20C15.1 20 18 17.1 18 13.5V11.8C19.6 11.3 20.4 9.6 19.8 8Z" fill="#414BBE"/>
</svg>
