<svg width="105" height="105" viewBox="0 0 105 105" fill="none" xmlns="http://www.w3.org/2000/svg">
<g clip-path="url(#clip0_73_70)">
<path d="M10.2248 45.3875C10.2248 44.4191 9.44054 43.6348 8.47326 43.6348C7.50487 43.6348 6.72168 44.4191 6.72168 45.3875C6.72168 59.0844 19.6722 66.6921 25.2405 69.3284C26.1152 69.7412 27.1594 69.3686 27.5733 68.4939C27.9873 67.6192 27.6135 66.575 26.7399 66.161C21.773 63.8115 10.2248 57.0829 10.2248 45.3875Z" fill="white"/>
<path d="M103.067 50.8301H90.4581L87.2606 36.4358C87.0944 35.6024 86.3402 35.0178 85.4912 35.0647C84.65 35.0937 83.9471 35.7174 83.8188 36.5496L79.0148 67.7758L75.033 22.6485C74.9549 21.7649 74.2297 21.0799 73.3439 21.0509C72.4647 21.0409 71.7072 21.669 71.5566 22.5358L66.2126 57.2763L62.7529 36.5284C62.6146 35.7006 61.9095 35.0881 61.0716 35.0658C60.236 35.0513 59.5041 35.6225 59.3145 36.437L56.1181 50.8301H51.7447C52.0917 49.0361 52.2657 47.2142 52.2668 45.3868C52.2668 31.9643 44.4952 28.9866 41.1538 28.3295C35.5465 27.3399 29.822 29.2945 25.9908 33.5083C22.1608 29.2923 16.4363 27.3365 10.8279 28.3295C7.48652 28.9866 -0.285156 31.9632 -0.285156 45.3868C-0.285156 67.778 24.3642 76.6408 25.4129 77.0079C25.7867 77.1384 26.195 77.1384 26.5688 77.0079C27.4646 76.6944 45.5628 70.1756 50.8299 54.3332H57.5216C58.3427 54.3332 59.0534 53.7631 59.233 52.961L60.7793 45.997L64.5525 68.6349C64.693 69.4794 65.4249 70.0986 66.2806 70.0986H66.2907C67.152 70.0941 67.8816 69.4638 68.0121 68.6126L72.8162 37.3875L76.798 82.5148C76.876 83.3973 77.6012 84.0834 78.4871 84.1113L78.5428 84.1124C79.4075 84.1124 80.1427 83.4821 80.2743 82.6263L85.8627 46.3005L87.3432 52.961C87.5217 53.762 88.2323 54.3321 89.0535 54.3332H103.067C104.035 54.3332 104.819 53.5489 104.819 52.5817C104.819 51.6144 104.035 50.8301 103.067 50.8301ZM48.1456 50.8301H32.7495C31.7811 47.0826 27.96 44.8301 24.2125 45.7973C20.4661 46.7646 18.2125 50.5869 19.1809 54.3332C20.1481 58.0807 23.9693 60.3332 27.7168 59.366C30.1846 58.7289 32.1113 56.8011 32.7495 54.3332H47.0623C42.2962 66.3634 28.9395 72.2965 25.9908 73.4779C22.3861 72.0343 3.21801 63.495 3.21801 45.3868C3.21801 37.6541 6.16112 32.8178 11.5029 31.7668C12.2013 31.6318 12.9109 31.5649 13.6215 31.5671C18.1411 31.5671 22.9841 34.1019 24.3698 37.4879C24.7368 38.3838 25.7599 38.8122 26.6558 38.4451C27.0898 38.2677 27.4345 37.923 27.613 37.4879C29.2196 33.5619 35.4628 30.7716 40.4788 31.7668C45.8217 32.8178 48.7637 37.6541 48.7637 45.3868C48.7626 47.2187 48.5562 49.0439 48.1456 50.8301ZM25.9908 54.3332H29.0076C28.0392 56.009 25.8971 56.5824 24.2214 55.6151C22.5457 54.6479 21.9711 52.5047 22.9395 50.829C23.9068 49.1532 26.0489 48.5798 27.7246 49.5471C28.2579 49.855 28.6997 50.2968 29.0076 50.829H25.9908C25.0236 50.829 24.2393 51.6133 24.2393 52.5805C24.2393 53.5489 25.0236 54.3332 25.9908 54.3332Z" fill="white"/>
</g>
<defs>
<clipPath id="clip0_73_70">
<rect width="105" height="105" fill="white"/>
</clipPath>
</defs>
</svg>
