<svg width="18" height="16" viewBox="0 0 18 16" fill="none" xmlns="http://www.w3.org/2000/svg">
<path d="M4.40291 0.346727C5.86732 -0.124323 7.45194 0.0451844 8.77782 0.797513L8.99732 0.929229L9.22075 0.796774C10.4778 0.0850687 11.969 -0.10511 13.3722 0.280844L13.5936 0.346776C16.6542 1.33215 18.0246 4.67399 16.9951 7.87161C16.4789 9.35907 15.6323 10.7077 14.5148 11.8193C12.9942 13.2961 11.318 14.6002 9.51851 15.7067L9.32747 15.8254C9.1335 15.946 8.88833 15.9481 8.69236 15.8308L8.48772 15.7082C6.68577 14.6002 5.0095 13.2961 3.48369 11.8142C2.37145 10.7077 1.52488 9.35907 1.00434 7.85858C-0.0214542 4.67206 1.34326 1.3318 4.40291 0.346727ZM8.4792 2.04588C7.39246 1.30306 6.02808 1.10347 4.7766 1.50603C2.40654 2.26908 1.33206 4.89899 2.16038 7.47261C2.61597 8.78543 3.36287 9.9753 4.33851 10.9459C5.79512 12.3606 7.40073 13.6097 9.12036 14.6672L9.00138 14.5922L9.39126 14.347C10.7525 13.4681 12.0345 12.4708 13.22 11.3691L13.66 10.9511C14.6409 9.9753 15.3878 8.78543 15.839 7.48564C16.6709 4.90145 15.5917 2.26969 13.2204 1.50622C11.9064 1.08467 10.472 1.32612 9.36365 2.15586C9.15086 2.31517 8.85926 2.31825 8.64314 2.16347L8.4792 2.04588ZM12.2255 3.40377C13.3267 3.75524 14.1076 4.74114 14.2051 5.89942C14.2333 6.23457 13.9842 6.5291 13.6488 6.55727C13.3134 6.58544 13.0186 6.33659 12.9904 6.00145C12.9341 5.33234 12.4848 4.76511 11.8546 4.56396C11.534 4.46162 11.3571 4.11894 11.4595 3.79856C11.5619 3.47818 11.9049 3.30143 12.2255 3.40377Z" fill="#414BBE"/>
</svg>
