<svg width="90" height="90" viewBox="0 0 90 90" fill="none" xmlns="http://www.w3.org/2000/svg">
<path d="M31.6073 70.5599L18.1803 77.8839C17.3924 78.3135 16.6843 78.8416 16.0254 79.4173C23.8537 86.0179 33.9592 89.9999 45.0003 89.9999C55.9599 89.9999 66.0009 86.0773 73.8071 79.5667C73.0871 78.9588 72.306 78.412 71.4399 77.9807L57.062 70.7926C55.2043 69.8637 54.0309 67.9652 54.0309 65.8884V60.2473C54.435 59.7871 54.8969 59.1962 55.391 58.4982C57.3507 55.7303 58.8331 52.6856 59.8605 49.4915C61.7046 48.9226 63.0631 47.2194 63.0631 45.1952V39.1737C63.0631 37.8492 62.4739 36.6656 61.5586 35.8369V27.1324C61.5586 27.1324 63.3467 13.5865 45.002 13.5865C26.6573 13.5865 28.4454 27.1324 28.4454 27.1324V35.8369C27.5284 36.6656 26.9409 37.8492 26.9409 39.1737V45.1952C26.9409 46.7813 27.7746 48.1771 29.0227 48.9837C30.5273 55.5333 34.4669 60.2473 34.4669 60.2473V65.7492C34.4652 67.753 33.3682 69.5988 31.6073 70.5599Z" fill="#E7ECED"/>
<path d="M45.7692 0.00670103C20.9207 -0.417827 0.431234 19.3822 0.00670546 44.2307C-0.234427 58.3199 6.0452 70.9827 16.0437 79.4037C16.6975 78.8331 17.3988 78.3101 18.1782 77.8856L31.6052 70.5616C33.3661 69.6005 34.4631 67.7546 34.4631 65.7475V60.2456C34.4631 60.2456 30.5218 55.5316 29.019 48.982C27.7726 48.1754 26.9371 46.7812 26.9371 45.1935V39.172C26.9371 37.8475 27.5263 36.6639 28.4416 35.8352V27.1307C28.4416 27.1307 26.6535 13.5848 44.9982 13.5848C63.3429 13.5848 61.5548 27.1307 61.5548 27.1307V35.8352C62.4718 36.6639 63.0593 37.8475 63.0593 39.172V45.1935C63.0593 47.2176 61.7009 48.9209 59.8567 49.4897C58.8293 52.6839 57.3469 55.7286 55.3873 58.4965C54.8931 59.1944 54.4312 59.7854 54.0271 60.2456V65.8867C54.0271 67.9635 55.2005 69.8637 57.0582 70.7909L71.4361 77.979C72.2988 78.4103 73.0782 78.9554 73.7965 79.5616C83.4927 71.4752 89.7571 59.3846 89.9897 45.7692C90.4176 20.9207 70.6193 0.431229 45.7692 0.00670103Z" fill="#556080"/>
</svg>
