<svg width="40" height="40" viewBox="0 0 40 40" fill="none" xmlns="http://www.w3.org/2000/svg">
<path d="M35.683 14.4009C35.683 14.4009 35.683 14.4009 35.683 14.3175C34.5087 11.1112 32.3779 8.343 29.5788 6.3873C26.7798 4.4316 23.4476 3.38281 20.033 3.38281C16.6184 3.38281 13.2862 4.4316 10.4872 6.3873C7.68815 8.343 5.55734 11.1112 4.38301 14.3175C4.38301 14.3175 4.38301 14.3175 4.38301 14.4009C3.07155 18.019 3.07155 21.9827 4.38301 25.6009C4.38301 25.6009 4.38301 25.6009 4.38301 25.6842C5.55734 28.8905 7.68815 31.6587 10.4872 33.6144C13.2862 35.5701 16.6184 36.6189 20.033 36.6189C23.4476 36.6189 26.7798 35.5701 29.5788 33.6144C32.3779 31.6587 34.5087 28.8905 35.683 25.6842C35.683 25.6842 35.683 25.6842 35.683 25.6009C36.9945 21.9827 36.9945 18.019 35.683 14.4009ZM7.09968 23.3342C6.52172 21.1496 6.52172 18.8522 7.09968 16.6675H10.1997C9.93306 18.8818 9.93306 21.12 10.1997 23.3342H7.09968ZM8.46634 26.6675H10.7997C11.1909 28.1539 11.75 29.591 12.4663 30.9509C10.8318 29.8374 9.4655 28.3743 8.46634 26.6675ZM10.7997 13.3342H8.46634C9.45112 11.6327 10.8 10.17 12.4163 9.05086C11.7173 10.4129 11.1749 11.8499 10.7997 13.3342ZM18.333 32.8342C16.2859 31.332 14.8483 29.1429 14.283 26.6675H18.333V32.8342ZM18.333 23.3342H13.5663C13.2553 21.1229 13.2553 18.8789 13.5663 16.6675H18.333V23.3342ZM18.333 13.3342H14.283C14.8483 10.8588 16.2859 8.66972 18.333 7.16753V13.3342ZM31.533 13.3342H29.1997C28.8085 11.8478 28.2493 10.4108 27.533 9.05086C29.1675 10.1643 30.5338 11.6274 31.533 13.3342ZM21.6663 7.16753C23.7134 8.66972 25.1511 10.8588 25.7163 13.3342H21.6663V7.16753ZM21.6663 32.8342V26.6675H25.7163C25.1511 29.1429 23.7134 31.332 21.6663 32.8342ZM26.433 23.3342H21.6663V16.6675H26.433C26.744 18.8789 26.744 21.1229 26.433 23.3342ZM27.583 30.9509C28.2993 29.591 28.8585 28.1539 29.2497 26.6675H31.583C30.5838 28.3743 29.2175 29.8374 27.583 30.9509ZM32.8997 23.3342H29.7997C29.9352 22.2283 30.002 21.115 29.9997 20.0009C30.0015 18.8867 29.9347 17.7735 29.7997 16.6675H32.8997C33.4776 18.8522 33.4776 21.1496 32.8997 23.3342Z" fill="#414BBE"/>
</svg>
