<svg width="20" height="24" viewBox="0 0 20 24" fill="none" xmlns="http://www.w3.org/2000/svg">
<path d="M9.98189 0.333984C13.5621 0.333984 16.4428 3.15124 16.4428 6.62932V8.41822C18.4523 9.04544 19.9163 10.8645 19.9163 13.0371V18.7968C19.9163 21.4866 17.6864 23.6673 14.9373 23.6673H5.06327C2.31292 23.6673 0.0830078 21.4866 0.0830078 18.7968V13.0371C0.0830078 10.8645 1.54828 9.04544 3.55651 8.41822V6.62932C3.56836 3.15124 6.44912 0.333984 9.98189 0.333984ZM9.99375 13.6156C9.42471 13.6156 8.96237 14.0678 8.96237 14.6243V17.1981C8.96237 17.7662 9.42471 18.2183 9.99375 18.2183C10.5746 18.2183 11.037 17.7662 11.037 17.1981V14.6243C11.037 14.0678 10.5746 13.6156 9.99375 13.6156ZM10.0056 2.36287C7.59905 2.36287 5.64298 4.26422 5.63113 6.60614V8.16664H14.3682V6.62932C14.3682 4.27582 12.4122 2.36287 10.0056 2.36287Z" fill="#414BBE"/>
</svg>
