<svg width="40" height="37" viewBox="0 0 40 37" fill="none" xmlns="http://www.w3.org/2000/svg">
<path d="M0 6.16998V30.83C0 34.228 2.27616 37 5.06629 37H21.4318C24.2219 37 26.4981 34.228 26.4981 30.83V26.8359C26.4981 26.1603 26.0494 25.6139 25.4946 25.6139C24.9398 25.6139 24.4911 26.1603 24.4911 26.8359V30.83C24.4911 32.8867 23.1124 34.5658 21.4236 34.5658H5.06629C3.37752 34.5658 1.99878 32.8867 1.99878 30.83V6.16998C1.99878 4.11332 3.37752 2.43421 5.06629 2.43421H21.4318C23.1205 2.43421 24.4993 4.11332 24.4993 6.16998V10.1641C24.4993 10.8397 24.948 11.3861 25.5028 11.3861C26.0575 11.3861 26.5062 10.8397 26.5062 10.1641V6.16998C26.5062 2.77202 24.2301 0 21.4399 0H5.06629C2.27616 0 0 2.76208 0 6.16998Z" fill="#6925A6"/>
<path d="M31.442 27.6903C31.6378 27.9287 31.8907 28.048 32.1517 28.048C32.4128 28.048 32.6657 27.9287 32.8615 27.6903L39.7063 19.3544C40.0979 18.8774 40.0979 18.1124 39.7063 17.6355L32.8615 9.29957C32.4699 8.82267 31.8417 8.82267 31.4501 9.29957C31.0585 9.77648 31.0585 10.5415 31.4501 11.0184L36.5898 17.2778H17.834C17.2792 17.2778 16.8305 17.8243 16.8305 18.4999C16.8305 19.1755 17.2792 19.722 17.834 19.722H36.5817L31.442 25.9814C31.0504 26.4483 31.0504 27.2233 31.442 27.6903Z" fill="#6925A6"/>
</svg>
