<svg width="33" height="33" viewBox="0 0 33 33" fill="none" xmlns="http://www.w3.org/2000/svg">
<g clip-path="url(#clip0_71_836)">
<path d="M13.0887 16.689C12.8373 16.437 12.4287 16.437 12.1773 16.689C11.9253 16.9404 11.9253 17.349 12.1773 17.6004C12.4287 17.8524 12.8373 17.8524 13.0887 17.6004C13.3407 17.349 13.3407 16.9404 13.0887 16.689Z" fill="white"/>
<path d="M16.5 17.7891C15.4338 17.7891 14.5664 18.6565 14.5664 19.7227C14.5664 20.7888 15.4338 21.6562 16.5 21.6562C17.5662 21.6562 18.4336 20.7888 18.4336 19.7227C18.4336 18.6565 17.5662 17.7891 16.5 17.7891ZM16.5 20.3672C16.1446 20.3672 15.8555 20.0781 15.8555 19.7227C15.8555 19.3673 16.1446 19.0781 16.5 19.0781C16.8554 19.0781 17.1445 19.3673 17.1445 19.7227C17.1445 20.0781 16.8554 20.3672 16.5 20.3672Z" fill="white"/>
<path d="M16.5 14.5664C15.7795 14.5664 15.0829 14.712 14.4295 14.9992C14.1036 15.1425 13.9556 15.5228 14.0988 15.8486C14.242 16.1745 14.6224 16.3225 14.9482 16.1793C15.4371 15.9645 15.9592 15.8555 16.5 15.8555C18.6324 15.8555 20.3672 17.5903 20.3672 19.7227C20.3672 21.855 18.6324 23.5898 16.5 23.5898C14.3676 23.5898 12.6328 21.855 12.6328 19.7227C12.6328 19.7006 12.6327 19.6791 12.6333 19.657C12.6415 19.3012 12.3597 19.006 12.0039 18.9978C11.6475 18.9889 11.3528 19.2712 11.3446 19.6271C11.3438 19.6592 11.3438 19.6906 11.3438 19.7227C11.3438 22.5658 13.6568 24.8789 16.5 24.8789C19.3432 24.8789 21.6563 22.5658 21.6563 19.7227C21.6563 16.8795 19.3432 14.5664 16.5 14.5664Z" fill="white"/>
<path d="M16.5 4.89844C16.144 4.89844 15.8555 5.18699 15.8555 5.54297V9.41016C15.8555 9.76613 16.144 10.0547 16.5 10.0547C16.856 10.0547 17.1445 9.76613 17.1445 9.41016V5.54297C17.1445 5.18699 16.856 4.89844 16.5 4.89844Z" fill="white"/>
<path d="M9.29927 9.67677L6.56517 6.94267C6.31348 6.69098 5.90536 6.69098 5.65361 6.94267C5.40192 7.19436 5.40192 7.60248 5.65361 7.85423L8.38771 10.5883C8.6394 10.84 9.04758 10.8401 9.29927 10.5883C9.55096 10.3366 9.55096 9.92852 9.29927 9.67677Z" fill="white"/>
<path d="M27.3462 6.94267C27.0945 6.69098 26.6863 6.69098 26.4346 6.94267L23.7005 9.67677C23.4488 9.92846 23.4488 10.3366 23.7005 10.5883C23.9521 10.84 24.3603 10.8401 24.612 10.5883L27.3462 7.85423C27.5978 7.60254 27.5978 7.19443 27.3462 6.94267Z" fill="white"/>
<path d="M32.8385 19.8329C28.7442 15.1975 22.6647 11.3438 16.5 11.3438C10.3345 11.3438 4.25506 15.1984 0.161449 19.8329C-0.0741912 20.0997 -0.0489256 20.507 0.217846 20.7426C0.484682 20.9783 0.892026 20.953 1.1276 20.6862C1.26495 20.5307 1.40565 20.3758 1.54816 20.2218C4.73311 25.0341 10.5067 28.1016 16.5 28.1016C22.4933 28.1016 28.2669 25.0341 31.4518 20.2218C31.5943 20.3758 31.735 20.5308 31.8724 20.6862C32.1073 20.9522 32.5145 20.979 32.7821 20.7426C33.0489 20.507 33.0742 20.0996 32.8385 19.8329ZM16.5 26.8125C10.8336 26.8125 5.3837 23.8683 2.46926 19.2728C4.76559 17.0226 10.0715 12.6328 16.5 12.6328C22.9285 12.6328 28.2344 17.0227 30.5307 19.2727C27.6163 23.8683 22.1664 26.8125 16.5 26.8125Z" fill="white"/>
</g>
<defs>
<clipPath id="clip0_71_836">
<rect width="33" height="33" fill="white"/>
</clipPath>
</defs>
</svg>
