<svg width="33" height="33" viewBox="0 0 33 33" fill="none" xmlns="http://www.w3.org/2000/svg">
<g clip-path="url(#clip0_71_795)">
<path d="M14.4893 19.776C14.1527 19.5772 13.8008 19.4012 13.4337 19.2788C12.7529 17.2977 10.8865 15.9668 8.79834 15.9668C6.09057 15.9744 3.89529 18.1774 3.90294 20.8851C3.90294 21.8183 4.1783 22.7362 4.68314 23.5241L0.177841 28.0294C-0.0592803 28.2665 -0.0592803 28.6566 0.177841 28.8937L3.8188 32.5347C4.05592 32.7718 4.44602 32.7718 4.68314 32.5347L9.18844 28.0294C11.4679 29.4904 14.4969 28.8325 15.9655 26.5531C17.4265 24.2737 16.7687 21.2447 14.4893 19.776ZM14.4357 26.5149C13.1048 27.8611 10.9707 27.9682 9.50971 26.7596C9.26493 26.5608 8.91308 26.5761 8.69125 26.7979L4.24715 31.242L1.47053 28.4654L5.91464 24.0289C6.13647 23.8071 6.15176 23.4552 5.95289 23.2105C4.66784 21.6348 4.89732 19.3094 6.47302 18.0244C7.13085 17.489 7.9493 17.1983 8.79069 17.1906C9.76977 17.1906 10.703 17.5808 11.3914 18.2768C11.8503 18.7281 12.1792 19.2941 12.3399 19.9214C12.3934 20.1355 12.5617 20.3115 12.7835 20.365C13.4107 20.5256 13.9768 20.8546 14.4281 21.3211C15.8737 22.7515 15.8737 25.0768 14.4357 26.5149Z" fill="white"/>
<path d="M31.3857 4.96723L27.7448 1.32628C27.5076 1.08916 27.1175 1.08916 26.8804 1.32628L21.7708 6.43586C19.4914 4.97488 16.4547 5.64035 14.9938 7.91978C13.5328 10.1992 14.1983 13.2359 16.4777 14.6968C16.8066 14.9034 17.1584 15.0793 17.5256 15.2017C18.214 17.1751 20.0727 18.4984 22.1609 18.4984C24.8687 18.4984 27.0563 16.3108 27.0563 13.603C27.0563 12.6545 26.781 11.7367 26.2761 10.9412L31.3857 5.83158C31.6228 5.59446 31.6228 5.20436 31.3857 4.96723ZM25.0446 10.4516C24.8228 10.6734 24.8075 11.0253 25.0064 11.2701C26.2838 12.8381 26.0543 15.1481 24.4863 16.4332C23.8284 16.9763 23.0023 17.2669 22.1533 17.2669C21.1742 17.2746 20.2334 16.8845 19.545 16.1961C19.086 15.7448 18.7571 15.1787 18.5965 14.5515C18.5429 14.3373 18.3746 14.1691 18.1605 14.1155C17.5332 13.9472 16.9672 13.626 16.5159 13.167C15.0779 11.7367 15.0626 9.40369 16.5006 7.96567C17.8392 6.61943 19.9809 6.51235 21.4496 7.71325C21.6943 7.91213 22.0462 7.89683 22.268 7.675L27.3164 2.62662L30.093 5.40323L25.0446 10.4516Z" fill="white"/>
<path d="M32.3878 20.0977H28.2496C27.9131 20.0977 27.6377 20.373 27.6377 20.7096C27.6377 21.0461 27.9131 21.3215 28.2496 21.3215H32.3878C32.7243 21.3215 32.9997 21.0461 32.9997 20.7096C32.9997 20.373 32.7243 20.0977 32.3878 20.0977Z" fill="white"/>
<path d="M5.09577 10.9961H0.957629C0.62107 10.9961 0.345703 11.2715 0.345703 11.608C0.345703 11.9446 0.61342 12.2199 0.957629 12.2199H5.09577C5.43233 12.2199 5.7077 11.9446 5.7077 11.608C5.7077 11.2715 5.43233 10.9961 5.09577 10.9961Z" fill="white"/>
<path d="M11.6744 0.287109C11.3379 0.287109 11.0625 0.562476 11.0625 0.899035V5.03718C11.0625 5.37374 11.3379 5.64146 11.6744 5.64146C12.011 5.64146 12.2864 5.36609 12.2864 5.02953V0.899035C12.2864 0.562476 12.011 0.287109 11.6744 0.287109Z" fill="white"/>
<path d="M20.777 26.6836C20.4404 26.6836 20.165 26.959 20.165 27.2955V31.4337C20.165 31.7702 20.4404 32.0456 20.777 32.0456C21.1135 32.0456 21.3889 31.7702 21.3889 31.4337V27.2955C21.3889 26.959 21.1135 26.6836 20.777 26.6836Z" fill="white"/>
<path d="M7.38291 6.45916L4.45332 3.53722C4.2162 3.30009 3.82609 3.30009 3.58897 3.53722C3.35185 3.77434 3.35185 4.16444 3.58897 4.40156L6.51857 7.32351C6.75569 7.56063 7.14579 7.56063 7.38291 7.32351C7.62004 7.08638 7.62004 6.69628 7.38291 6.45916Z" fill="white"/>
<path d="M27.9669 27.043L25.0373 24.1134C24.8002 23.8763 24.4101 23.8763 24.173 24.1134C23.9358 24.3505 23.9358 24.7406 24.173 24.9777L27.1026 27.9073C27.3397 28.1445 27.7298 28.1445 27.9669 27.9073C28.204 27.6702 28.204 27.2801 27.9669 27.043Z" fill="white"/>
</g>
<defs>
<clipPath id="clip0_71_795">
<rect width="33" height="33" fill="white"/>
</clipPath>
</defs>
</svg>
