<svg width="16" height="13" viewBox="0 0 16 13" fill="none" xmlns="http://www.w3.org/2000/svg">
<path d="M14.5827 2.95833H15.291V10.0417H14.5827V12.1667C14.5827 12.3545 14.5081 12.5347 14.3752 12.6675C14.2424 12.8004 14.0622 12.875 13.8744 12.875H1.12435C0.936487 12.875 0.75632 12.8004 0.623482 12.6675C0.490643 12.5347 0.416016 12.3545 0.416016 12.1667V0.833333C0.416016 0.645472 0.490643 0.465304 0.623482 0.332466C0.75632 0.199628 0.936487 0.125 1.12435 0.125H13.8744C14.0622 0.125 14.2424 0.199628 14.3752 0.332466C14.5081 0.465304 14.5827 0.645472 14.5827 0.833333V2.95833ZM13.166 10.0417H8.91602C7.97671 10.0417 7.07587 9.66853 6.41168 9.00434C5.74749 8.34015 5.37435 7.43931 5.37435 6.5C5.37435 5.56069 5.74749 4.65985 6.41168 3.99566C7.07587 3.33147 7.97671 2.95833 8.91602 2.95833H13.166V1.54167H1.83268V11.4583H13.166V10.0417ZM13.8744 8.625V4.375H8.91602C8.35243 4.375 7.81193 4.59888 7.41341 4.9974C7.0149 5.39591 6.79102 5.93641 6.79102 6.5C6.79102 7.06358 7.0149 7.60409 7.41341 8.0026C7.81193 8.40112 8.35243 8.625 8.91602 8.625H13.8744ZM8.91602 5.79167H11.041V7.20833H8.91602V5.79167Z" fill="#414BBE"/>
</svg>
