<svg width="16" height="16" viewBox="0 0 16 16" fill="none" xmlns="http://www.w3.org/2000/svg">
<path d="M7.99999 7.1902C5.93988 7.1902 4.25436 5.84179 4.25436 4.1937V3.11906C4.25436 1.47097 5.93988 0.122559 7.99999 0.122559C10.0601 0.122559 11.7456 1.47097 11.7456 3.11906V4.1937C11.7456 5.84179 10.0601 7.1902 7.99999 7.1902Z" fill="black"/>
<path d="M10.1091 7.60205C9.47545 7.86445 8.75928 8.01569 8 8.01569C7.24072 8.01569 6.52455 7.86463 5.89087 7.60205C3.059 7.94007 0.868683 9.90606 0.868683 12.2617V15.3613C0.868683 15.6451 1.15883 15.877 1.5133 15.877H14.4867C14.8414 15.877 15.1313 15.6449 15.1313 15.3613V12.2619C15.1313 9.90606 12.941 7.94025 10.1091 7.60205Z" fill="black"/>
</svg>
