<svg width="40" height="40" viewBox="0 0 40 40" fill="none" xmlns="http://www.w3.org/2000/svg">
<path d="M20.0002 3.33398C16.7677 3.34013 13.6067 4.28617 10.9023 6.05688C8.19787 7.82759 6.06674 10.3466 4.76848 13.3069C3.47022 16.2673 3.06087 19.5413 3.59029 22.7302C4.11971 25.9191 5.56504 28.8853 7.75024 31.2673C9.31095 32.9591 11.2051 34.3092 13.3135 35.2327C15.4218 36.1561 17.6985 36.6329 20.0002 36.6329C22.3019 36.6329 24.5787 36.1561 26.687 35.2327C28.7953 34.3092 30.6895 32.9591 32.2502 31.2673C34.4355 28.8853 35.8808 25.9191 36.4102 22.7302C36.9396 19.5413 36.5303 16.2673 35.232 13.3069C33.9338 10.3466 31.8026 7.82759 29.0982 6.05688C26.3938 4.28617 23.2328 3.34013 20.0002 3.33398ZM20.0002 33.334C16.5477 33.3287 13.2318 31.9844 10.7502 29.584C11.5037 27.7499 12.7853 26.1811 14.4323 25.0771C16.0794 23.9731 18.0174 23.3837 20.0002 23.3837C21.9831 23.3837 23.9211 23.9731 25.5682 25.0771C27.2152 26.1811 28.4968 27.7499 29.2502 29.584C26.7687 31.9844 23.4528 33.3287 20.0002 33.334ZM16.6669 16.6673C16.6669 16.008 16.8624 15.3636 17.2287 14.8154C17.595 14.2673 18.1155 13.84 18.7246 13.5877C19.3337 13.3354 20.0039 13.2694 20.6505 13.398C21.2971 13.5267 21.8911 13.8441 22.3573 14.3103C22.8234 14.7765 23.1409 15.3704 23.2695 16.017C23.3981 16.6636 23.3321 17.3338 23.0798 17.9429C22.8276 18.552 22.4003 19.0726 21.8521 19.4389C21.304 19.8052 20.6595 20.0007 20.0002 20.0007C19.1162 20.0007 18.2683 19.6495 17.6432 19.0243C17.0181 18.3992 16.6669 17.5514 16.6669 16.6673ZM31.5169 26.6673C30.0278 24.1203 27.7359 22.139 25.0002 21.034C25.8489 20.0717 26.4018 18.8851 26.5927 17.6164C26.7836 16.3477 26.6044 15.0508 26.0765 13.8815C25.5486 12.7121 24.6946 11.7199 23.6168 11.0239C22.539 10.3279 21.2832 9.95773 20.0002 9.95773C18.7173 9.95773 17.4615 10.3279 16.3837 11.0239C15.3059 11.7199 14.4519 12.7121 13.924 13.8815C13.3961 15.0508 13.2169 16.3477 13.4078 17.6164C13.5987 18.8851 14.1516 20.0717 15.0002 21.034C12.2646 22.139 9.97269 24.1203 8.48358 26.6673C7.29682 24.6458 6.66978 22.3448 6.66691 20.0007C6.66691 16.4644 8.07167 13.073 10.5722 10.5726C13.0726 8.07208 16.464 6.66732 20.0002 6.66732C23.5365 6.66732 26.9279 8.07208 29.4283 10.5726C31.9288 13.073 33.3336 16.4644 33.3336 20.0007C33.3307 22.3448 32.7037 24.6458 31.5169 26.6673Z" fill="#414BBE"/>
</svg>
