<svg width="21" height="21" viewBox="0 0 21 21" fill="none" xmlns="http://www.w3.org/2000/svg">
<path d="M5.64846 17.2609C6.51952 17.2609 7.22659 17.9679 7.22659 18.839C7.22659 19.7102 6.5194 20.4161 5.64846 20.4161C4.7774 20.4161 4.07138 19.71 4.07138 18.839C4.07138 17.968 4.77729 17.2609 5.64846 17.2609ZM17.3697 17.2609C18.2408 17.2609 18.9478 17.9679 18.9478 18.839C18.9478 19.7102 18.2407 20.4161 17.3697 20.4161C16.4988 20.4161 15.7916 19.7102 15.7916 18.839C15.7916 17.9679 16.4987 17.2609 17.3697 17.2609ZM0.808939 0.000520786L0.914613 0.0115726L3.08128 0.386573C3.39269 0.44047 3.63683 0.675224 3.70813 0.975558L3.72656 1.09103L3.97107 4.0095H18.6553C19.9294 4.0095 20.9189 5.09356 20.8279 6.34259L20.8108 6.49952L19.8222 13.3312C19.6404 14.5831 18.6071 15.5255 17.3609 15.6051L17.1897 15.6105H5.82304C4.49721 15.6105 3.38404 14.6376 3.19237 13.3433L3.17266 13.1728L2.22002 1.82304L0.648142 1.55118C0.25842 1.48373 -0.0135377 1.13838 0.000520786 0.753816L0.0115726 0.648142C0.0790246 0.25842 0.424374 -0.0135377 0.808939 0.000520786ZM18.6553 5.572H4.10231L4.72971 13.0425C4.77378 13.5707 5.18637 13.985 5.70228 14.0415L5.82304 14.048H17.1897C17.693 14.048 18.1257 13.7068 18.2511 13.2291L18.2759 13.107L19.2644 6.2758C19.3137 5.93523 19.0761 5.62765 18.7472 5.57875L18.6553 5.572ZM15.5194 7.8595C15.9509 7.8595 16.3006 8.20928 16.3006 8.64075C16.3006 9.03627 16.0067 9.36314 15.6254 9.41487L15.5194 9.422H12.6309C12.1994 9.422 11.8496 9.07223 11.8496 8.64075C11.8496 8.24524 12.1435 7.91837 12.5248 7.86663L12.6309 7.8595H15.5194Z" fill="#00184B"/>
</svg>
