<svg width="20" height="20" viewBox="0 0 20 20" fill="none" xmlns="http://www.w3.org/2000/svg">
<path d="M9.16683 1.6665C7.51866 1.6665 5.90749 2.15525 4.53708 3.07092C3.16667 3.9866 2.09857 5.28809 1.46784 6.81081C0.837107 8.33353 0.672079 10.0091 0.993623 11.6256C1.31517 13.2421 2.10884 14.727 3.27428 15.8924C4.43971 17.0578 5.92457 17.8515 7.54108 18.173C9.15759 18.4946 10.8331 18.3296 12.3559 17.6988C13.8786 17.0681 15.1801 16 16.0957 14.6296C17.0114 13.2592 17.5002 11.648 17.5002 9.99984C17.5002 8.90549 17.2846 7.82186 16.8658 6.81081C16.447 5.79976 15.8332 4.8811 15.0594 4.10728C14.2856 3.33346 13.3669 2.71963 12.3559 2.30084C11.3448 1.88205 10.2612 1.6665 9.16683 1.6665V1.6665ZM9.16683 16.6665C7.84829 16.6665 6.55936 16.2755 5.46303 15.543C4.3667 14.8104 3.51222 13.7692 3.00764 12.5511C2.50305 11.3329 2.37103 9.99244 2.62826 8.69924C2.8855 7.40603 3.52044 6.21814 4.45279 5.28579C5.38514 4.35344 6.57302 3.7185 7.86623 3.46127C9.15944 3.20403 10.4999 3.33606 11.7181 3.84064C12.9362 4.34522 13.9774 5.19971 14.71 6.29604C15.4425 7.39236 15.8335 8.6813 15.8335 9.99984C15.8335 11.7679 15.1311 13.4636 13.8809 14.7139C12.6306 15.9641 10.9349 16.6665 9.16683 16.6665V16.6665ZM9.16683 4.99984C8.94582 4.99984 8.73386 5.08763 8.57758 5.24392C8.4213 5.4002 8.3335 5.61216 8.3335 5.83317V8.55817L7.41683 8.02484C7.22455 7.91433 6.99625 7.88473 6.78214 7.94256C6.56804 8.00038 6.38567 8.14089 6.27517 8.33317C6.16466 8.52545 6.13506 8.75376 6.19289 8.96786C6.25071 9.18197 6.39122 9.36433 6.5835 9.47484L8.75017 10.7248H8.8085H8.8835C8.97052 10.778 9.06656 10.8147 9.16683 10.8332C9.26396 10.8304 9.35985 10.8107 9.45017 10.7748H9.51683C9.60373 10.7369 9.68285 10.6833 9.75017 10.6165V10.6165C9.79585 10.567 9.83764 10.5141 9.87517 10.4582C9.87517 10.4582 9.87517 10.4582 9.87517 10.4082C9.89555 10.3595 9.91226 10.3093 9.92517 10.2582C9.92908 10.2027 9.92908 10.147 9.92517 10.0915C9.92517 10.0915 9.92517 10.0915 9.92517 10.0415V5.83317C9.92601 5.62456 9.84858 5.42321 9.70818 5.26892C9.56777 5.11463 9.3746 5.01861 9.16683 4.99984Z" fill="#9298A9"/>
</svg>
