<svg width="40" height="40" viewBox="0 0 40 40" fill="none" xmlns="http://www.w3.org/2000/svg">
<path d="M33.3334 14.9002C33.3161 14.7471 33.2825 14.5962 33.2334 14.4502V14.3002C33.1533 14.1288 33.0464 13.9713 32.9167 13.8335L22.9167 3.8335C22.779 3.70386 22.6214 3.59696 22.4501 3.51683C22.4003 3.50976 22.3498 3.50976 22.3001 3.51683C22.1308 3.41973 21.9438 3.3574 21.7501 3.3335H11.6667C10.3407 3.3335 9.0689 3.86028 8.13121 4.79796C7.19353 5.73564 6.66675 7.00741 6.66675 8.3335V31.6668C6.66675 32.9929 7.19353 34.2647 8.13121 35.2024C9.0689 36.14 10.3407 36.6668 11.6667 36.6668H28.3334C29.6595 36.6668 30.9313 36.14 31.8689 35.2024C32.8066 34.2647 33.3334 32.9929 33.3334 31.6668V15.0002C33.3334 15.0002 33.3334 15.0002 33.3334 14.9002ZM23.3334 9.01683L27.6501 13.3335H25.0001C24.5581 13.3335 24.1341 13.1579 23.8216 12.8453C23.509 12.5328 23.3334 12.1089 23.3334 11.6668V9.01683ZM30.0001 31.6668C30.0001 32.1089 29.8245 32.5328 29.5119 32.8453C29.1994 33.1579 28.7754 33.3335 28.3334 33.3335H11.6667C11.2247 33.3335 10.8008 33.1579 10.4882 32.8453C10.1757 32.5328 10.0001 32.1089 10.0001 31.6668V8.3335C10.0001 7.89147 10.1757 7.46755 10.4882 7.15499C10.8008 6.84242 11.2247 6.66683 11.6667 6.66683H20.0001V11.6668C20.0001 12.9929 20.5269 14.2647 21.4645 15.2024C22.4022 16.14 23.674 16.6668 25.0001 16.6668H30.0001V31.6668ZM23.8167 20.4835L18.3334 25.9835L16.1834 23.8168C15.8696 23.503 15.4439 23.3267 15.0001 23.3267C14.5562 23.3267 14.1306 23.503 13.8167 23.8168C13.5029 24.1307 13.3266 24.5563 13.3266 25.0002C13.3266 25.444 13.5029 25.8697 13.8167 26.1835L17.1501 29.5168C17.305 29.673 17.4894 29.797 17.6925 29.8817C17.8956 29.9663 18.1134 30.0098 18.3334 30.0098C18.5534 30.0098 18.7713 29.9663 18.9744 29.8817C19.1775 29.797 19.3618 29.673 19.5167 29.5168L26.1834 22.8502C26.4973 22.5363 26.6736 22.1107 26.6736 21.6668C26.6736 21.223 26.4973 20.7973 26.1834 20.4835C25.8696 20.1697 25.4439 19.9933 25.0001 19.9933C24.5562 19.9933 24.1306 20.1697 23.8167 20.4835Z" fill="#414BBE"/>
</svg>
