<svg width="20" height="20" viewBox="0 0 20 20" fill="none" xmlns="http://www.w3.org/2000/svg">
<path d="M5.40243 2.34607C6.86684 1.87502 8.45145 2.04453 9.77733 2.79686L9.99683 2.92857L10.2203 2.79612C11.4773 2.08441 12.9685 1.89423 14.3718 2.28019L14.5932 2.34612C17.6538 3.33149 19.0241 6.67334 17.9946 9.87096C17.4784 11.3584 16.6318 12.707 15.5144 13.8187C13.9938 15.2954 12.3175 16.5995 10.518 17.706L10.327 17.8248C10.133 17.9453 9.88784 17.9474 9.69187 17.8301L9.48723 17.7076C7.68528 16.5995 6.00902 15.2954 4.4832 13.8135C3.37096 12.707 2.52439 11.3584 2.00385 9.85792C0.978058 6.6714 2.34277 3.33114 5.40243 2.34607ZM9.47871 4.04522C8.39197 3.3024 7.0276 3.10282 5.77612 3.50537C3.40605 4.26843 2.33157 6.89833 3.1599 9.47195C3.61548 10.7848 4.36238 11.9746 5.33802 12.9453C6.79463 14.3599 8.40024 15.609 10.1199 16.6665L10.0009 16.5915L10.3908 16.3463C11.752 15.4675 13.034 14.4701 14.2195 13.3684L14.6595 12.9504C15.6404 11.9746 16.3873 10.7848 16.8385 9.48498C17.6704 6.90079 16.5912 4.26903 14.2199 3.50557C12.9059 3.08401 11.4715 3.32547 10.3632 4.15521C10.1504 4.31451 9.85877 4.31759 9.64265 4.16281L9.47871 4.04522ZM13.2251 5.40311C14.3262 5.75459 15.1072 6.74048 15.2046 7.89877C15.2328 8.23391 14.9837 8.52844 14.6483 8.55661C14.3129 8.58479 14.0181 8.33594 13.9899 8.00079C13.9336 7.33169 13.4843 6.76445 12.8541 6.5633C12.5335 6.46096 12.3566 6.11828 12.459 5.7979C12.5614 5.47752 12.9044 5.30077 13.2251 5.40311Z" fill="#414BBE"/>
</svg>
