<svg width="20" height="20" viewBox="0 0 20 20" fill="none" xmlns="http://www.w3.org/2000/svg">
<path d="M17.0151 3.09678C17.237 3.31515 17.2572 3.65686 17.0756 3.89766L17.0151 3.96664L3.8701 16.9031C3.62602 17.1433 3.23029 17.1433 2.98622 16.9031C2.76433 16.6848 2.74416 16.3431 2.9257 16.1023L2.98622 16.0333L4.62959 14.417C3.44729 13.355 2.4558 11.9354 1.71767 10.2432C1.64992 10.0878 1.65011 9.9119 1.71819 9.75671C2.5728 7.8088 3.75911 6.21997 5.18246 5.1183C6.6232 3.99614 8.28628 3.39615 10.0003 3.39615C11.5463 3.39615 13.047 3.88559 14.3909 4.80867L16.1312 3.09678C16.3753 2.85657 16.771 2.85657 17.0151 3.09678ZM16.7063 7.05013C17.3112 7.84091 17.8397 8.74872 18.2823 9.75598C18.3507 9.91163 18.3508 10.0882 18.2825 10.2439C16.5514 14.1907 13.4458 16.6037 10.0003 16.6037C9.21597 16.6037 8.43992 16.4788 7.69247 16.2333C7.36504 16.1258 7.1882 15.7774 7.29747 15.4552C7.40675 15.1329 7.76076 14.9589 8.08819 15.0664C8.70843 15.2702 9.35089 15.3735 10.0003 15.3735C12.7542 15.3735 15.3178 13.4886 16.8942 10.2748L17.024 10.0011L16.9799 9.90376C16.6627 9.23196 16.304 8.61576 15.9085 8.06174L15.7076 7.78995C15.5001 7.51855 15.5553 7.13291 15.8311 6.92862C16.1069 6.72432 16.4987 6.77872 16.7063 7.05013ZM10.0003 4.62632C8.57553 4.62632 7.18359 5.12849 5.95669 6.08409C4.78184 6.99343 3.77487 8.30056 3.01454 9.91697L2.97566 10.0011L3.01345 10.0835C3.67429 11.4957 4.52581 12.6699 5.51409 13.5457L7.29544 11.7922C6.93579 11.2712 6.73866 10.6541 6.73866 10.0009C6.73866 8.22364 8.19509 6.78937 10.0003 6.78937C10.6604 6.78937 11.2941 6.98474 11.8224 7.337L13.4912 5.69473C12.4015 4.99206 11.214 4.62632 10.0003 4.62632ZM12.6141 9.84649L12.6986 9.85573C13.0383 9.91586 13.2642 10.2356 13.2031 10.57C12.9636 11.8805 11.9163 12.9133 10.5855 13.151C10.2458 13.2117 9.92053 12.9899 9.85888 12.6557C9.79722 12.3215 10.0226 12.0013 10.3622 11.9406C11.1797 11.7946 11.8257 11.1576 11.9729 10.3522C12.0289 10.0458 12.3066 9.83343 12.6141 9.84649ZM10.0003 8.01955C8.88563 8.01955 7.98866 8.90286 7.98866 10.0009C7.98866 10.3208 8.06425 10.6246 8.206 10.8963L10.9117 8.23369C10.6353 8.09508 10.3234 8.01955 10.0003 8.01955Z" fill="#9298A9"/>
</svg>
