<svg width="12" height="12" viewBox="0 0 12 12" fill="none" xmlns="http://www.w3.org/2000/svg">
<path d="M6 10.45L8.475 7.97501C8.96445 7.48551 9.29776 6.86187 9.43277 6.18294C9.56779 5.50402 9.49846 4.80031 9.23354 4.16078C8.96863 3.52126 8.52002 2.97466 7.94446 2.59009C7.36889 2.20552 6.69222 2.00026 6 2.00026C5.30778 2.00026 4.63111 2.20552 4.05554 2.59009C3.47998 2.97466 3.03137 3.52126 2.76646 4.16078C2.50154 4.80031 2.43221 5.50402 2.56723 6.18294C2.70225 6.86187 3.03555 7.48551 3.525 7.97501L6 10.45ZM6 11.864L2.818 8.68201C2.18867 8.05267 1.76009 7.25084 1.58646 6.37793C1.41284 5.50502 1.50195 4.60022 1.84255 3.77796C2.18315 2.95569 2.75992 2.25289 3.49994 1.75843C4.23996 1.26396 5.10999 1.00005 6 1.00005C6.89001 1.00005 7.76004 1.26396 8.50006 1.75843C9.24008 2.25289 9.81686 2.95569 10.1575 3.77796C10.498 4.60022 10.5872 5.50502 10.4135 6.37793C10.2399 7.25084 9.81133 8.05267 9.182 8.68201L6 11.864ZM6 6.50001C6.26522 6.50001 6.51957 6.39465 6.70711 6.20711C6.89464 6.01958 7 5.76522 7 5.50001C7 5.23479 6.89464 4.98044 6.70711 4.7929C6.51957 4.60536 6.26522 4.50001 6 4.50001C5.73478 4.50001 5.48043 4.60536 5.29289 4.7929C5.10536 4.98044 5 5.23479 5 5.50001C5 5.76522 5.10536 6.01958 5.29289 6.20711C5.48043 6.39465 5.73478 6.50001 6 6.50001ZM6 7.50001C5.46957 7.50001 4.96086 7.28929 4.58579 6.91422C4.21071 6.53915 4 6.03044 4 5.50001C4 4.96957 4.21071 4.46087 4.58579 4.08579C4.96086 3.71072 5.46957 3.50001 6 3.50001C6.53043 3.50001 7.03914 3.71072 7.41421 4.08579C7.78929 4.46087 8 4.96957 8 5.50001C8 6.03044 7.78929 6.53915 7.41421 6.91422C7.03914 7.28929 6.53043 7.50001 6 7.50001Z" fill="#9298A9"/>
</svg>
