<svg width="40" height="40" viewBox="0 0 40 40" fill="none" xmlns="http://www.w3.org/2000/svg">
<path d="M6.66675 20.0002C6.66675 20.4422 6.84234 20.8661 7.1549 21.1787C7.46746 21.4912 7.89139 21.6668 8.33341 21.6668H20.9834L17.1501 25.4835C16.9939 25.6384 16.8699 25.8228 16.7853 26.0259C16.7006 26.229 16.6571 26.4468 16.6571 26.6668C16.6571 26.8869 16.7006 27.1047 16.7853 27.3078C16.8699 27.5109 16.9939 27.6952 17.1501 27.8502C17.305 28.0064 17.4894 28.1304 17.6925 28.215C17.8956 28.2996 18.1134 28.3432 18.3334 28.3432C18.5534 28.3432 18.7713 28.2996 18.9744 28.215C19.1775 28.1304 19.3618 28.0064 19.5167 27.8502L26.1834 21.1835C26.3351 21.025 26.4541 20.8381 26.5334 20.6335C26.7001 20.2277 26.7001 19.7726 26.5334 19.3668C26.4541 19.1622 26.3351 18.9753 26.1834 18.8168L19.5167 12.1502C19.3613 11.9948 19.1769 11.8715 18.9738 11.7874C18.7708 11.7033 18.5532 11.66 18.3334 11.66C18.1136 11.66 17.896 11.7033 17.693 11.7874C17.49 11.8715 17.3055 11.9948 17.1501 12.1502C16.9947 12.3056 16.8714 12.49 16.7873 12.6931C16.7032 12.8961 16.6599 13.1137 16.6599 13.3335C16.6599 13.5533 16.7032 13.7709 16.7873 13.9739C16.8714 14.1769 16.9947 14.3614 17.1501 14.5168L20.9834 18.3335H8.33341C7.89139 18.3335 7.46746 18.5091 7.1549 18.8217C6.84234 19.1342 6.66675 19.5581 6.66675 20.0002ZM28.3334 3.3335H11.6667C10.3407 3.3335 9.0689 3.86028 8.13121 4.79796C7.19353 5.73564 6.66675 7.00741 6.66675 8.3335V13.3335C6.66675 13.7755 6.84234 14.1994 7.1549 14.512C7.46746 14.8246 7.89139 15.0002 8.33341 15.0002C8.77544 15.0002 9.19936 14.8246 9.51193 14.512C9.82449 14.1994 10.0001 13.7755 10.0001 13.3335V8.3335C10.0001 7.89147 10.1757 7.46755 10.4882 7.15499C10.8008 6.84242 11.2247 6.66683 11.6667 6.66683H28.3334C28.7754 6.66683 29.1994 6.84242 29.5119 7.15499C29.8245 7.46755 30.0001 7.89147 30.0001 8.3335V31.6668C30.0001 32.1089 29.8245 32.5328 29.5119 32.8453C29.1994 33.1579 28.7754 33.3335 28.3334 33.3335H11.6667C11.2247 33.3335 10.8008 33.1579 10.4882 32.8453C10.1757 32.5328 10.0001 32.1089 10.0001 31.6668V26.6668C10.0001 26.2248 9.82449 25.8009 9.51193 25.4883C9.19936 25.1758 8.77544 25.0002 8.33341 25.0002C7.89139 25.0002 7.46746 25.1758 7.1549 25.4883C6.84234 25.8009 6.66675 26.2248 6.66675 26.6668V31.6668C6.66675 32.9929 7.19353 34.2647 8.13121 35.2024C9.0689 36.14 10.3407 36.6668 11.6667 36.6668H28.3334C29.6595 36.6668 30.9313 36.14 31.8689 35.2024C32.8066 34.2647 33.3334 32.9929 33.3334 31.6668V8.3335C33.3334 7.00741 32.8066 5.73564 31.8689 4.79796C30.9313 3.86028 29.6595 3.3335 28.3334 3.3335Z" fill="#414BBE"/>
</svg>
