<svg width="56" height="61" viewBox="0 0 56 61" fill="none" xmlns="http://www.w3.org/2000/svg">
<g clip-path="url(#clip0_3_846)">
<path d="M5.45332 26.3681C5.45332 25.8055 5.03502 25.3499 4.51914 25.3499C4.00266 25.3499 3.58496 25.8055 3.58496 26.3681C3.58496 34.3254 10.4919 38.7451 13.4617 40.2766C13.9282 40.5164 14.4851 40.3 14.7058 39.7918C14.9266 39.2837 14.7273 38.677 14.2614 38.4365C11.6123 37.0716 5.45332 33.1626 5.45332 26.3681Z" fill="#414BBE"/>
<path d="M54.969 29.5304H48.2441L46.5387 21.168C46.4501 20.6839 46.0478 20.3442 45.595 20.3715C45.1464 20.3883 44.7715 20.7506 44.7031 21.2341L42.141 39.3751L40.0173 13.1583C39.9757 12.6449 39.5889 12.247 39.1165 12.2301C38.6476 12.2243 38.2436 12.5892 38.1633 13.0928L35.3131 33.2754L33.468 21.2218C33.3942 20.7409 33.0181 20.3851 32.5713 20.3721C32.1256 20.3637 31.7353 20.6955 31.6341 21.1687L29.9294 29.5304H27.5969C27.782 28.4882 27.8748 27.4297 27.8754 26.3681C27.8754 18.5703 23.7305 16.8404 21.9484 16.4586C18.9579 15.8837 15.9048 17.0193 13.8615 19.4673C11.8188 17.018 8.76579 15.8818 5.77463 16.4586C3.99255 16.8404 -0.152344 18.5696 -0.152344 26.3681C-0.152344 39.3764 12.994 44.5252 13.5533 44.7385C13.7526 44.8143 13.9704 44.8143 14.1697 44.7385C14.6475 44.5563 24.2999 40.7692 27.109 31.5656H30.6779C31.1159 31.5656 31.4949 31.2344 31.5907 30.7683L32.4154 26.7226L34.4277 39.8741C34.5027 40.3648 34.893 40.7245 35.3494 40.7245H35.3548C35.8141 40.7219 36.2033 40.3557 36.2729 39.8612L38.835 21.7209L40.9587 47.9377C41.0003 48.4504 41.3871 48.849 41.8595 48.8652L41.8893 48.8658C42.3504 48.8658 42.7425 48.4996 42.8127 48.0025L45.7932 26.8989L46.5828 30.7683C46.678 31.2337 47.057 31.5649 47.4949 31.5656H54.969C55.4848 31.5656 55.9031 31.1099 55.9031 30.548C55.9031 29.986 55.4848 29.5304 54.969 29.5304ZM25.6774 29.5304H17.4661C16.9497 27.3533 14.9117 26.0447 12.9131 26.6066C10.915 27.1685 9.71306 29.3891 10.2295 31.5656C10.7454 33.7427 12.7834 35.0513 14.782 34.4893C16.0982 34.1193 17.1258 32.9993 17.4661 31.5656H25.0996C22.5577 38.5545 15.4342 42.0013 13.8615 42.6877C11.939 41.849 1.71601 36.8881 1.71601 26.3681C1.71601 21.8758 3.28567 19.0661 6.13462 18.4555C6.5071 18.3771 6.88553 18.3382 7.26456 18.3395C9.67498 18.3395 12.258 19.8121 12.997 21.7792C13.1927 22.2997 13.7384 22.5486 14.2162 22.3353C14.4476 22.2323 14.6315 22.032 14.7267 21.7792C15.5835 19.4984 18.9132 17.8774 21.5884 18.4555C24.438 19.0661 26.007 21.8758 26.007 26.3681C26.0064 27.4323 25.8964 28.4927 25.6774 29.5304ZM13.8615 31.5656H15.4705C14.954 32.5391 13.8115 32.8722 12.9178 32.3103C12.0241 31.7483 11.7177 30.5033 12.2341 29.5297C12.75 28.5562 13.8925 28.2231 14.7862 28.785C15.0706 28.9639 15.3062 29.2206 15.4705 29.5297H13.8615C13.3456 29.5297 12.9273 29.9854 12.9273 30.5473C12.9273 31.1099 13.3456 31.5656 13.8615 31.5656Z" fill="#414BBE"/>
</g>
<defs>
<clipPath id="clip0_3_846">
<rect width="56" height="61" fill="white"/>
</clipPath>
</defs>
</svg>
