<svg width="40" height="40" viewBox="0 0 40 40" fill="none" xmlns="http://www.w3.org/2000/svg">
<path d="M31.6666 6.6665H8.33325C7.00717 6.6665 5.7354 7.19329 4.79772 8.13097C3.86004 9.06865 3.33325 10.3404 3.33325 11.6665V28.3332C3.33325 29.6593 3.86004 30.931 4.79772 31.8687C5.7354 32.8064 7.00717 33.3332 8.33325 33.3332H31.6666C32.9927 33.3332 34.2644 32.8064 35.2021 31.8687C36.1398 30.931 36.6666 29.6593 36.6666 28.3332V11.6665C36.6666 10.3404 36.1398 9.06865 35.2021 8.13097C34.2644 7.19329 32.9927 6.6665 31.6666 6.6665ZM30.9833 9.99984L21.1833 19.7998C21.0283 19.956 20.844 20.08 20.6409 20.1647C20.4378 20.2493 20.2199 20.2928 19.9999 20.2928C19.7799 20.2928 19.5621 20.2493 19.359 20.1647C19.1559 20.08 18.9715 19.956 18.8166 19.7998L9.01659 9.99984H30.9833ZM33.3333 28.3332C33.3333 28.7752 33.1577 29.1991 32.8451 29.5117C32.5325 29.8242 32.1086 29.9998 31.6666 29.9998H8.33325C7.89122 29.9998 7.4673 29.8242 7.15474 29.5117C6.84218 29.1991 6.66659 28.7752 6.66659 28.3332V12.3498L16.4666 22.1498C17.4041 23.0862 18.6749 23.6121 19.9999 23.6121C21.3249 23.6121 22.5958 23.0862 23.5333 22.1498L33.3333 12.3498V28.3332Z" fill="#414BBE"/>
</svg>
