<svg width="21" height="21" viewBox="0 0 21 21" fill="none" xmlns="http://www.w3.org/2000/svg">
<path d="M11.2133 10.6724L4.62282 11.7714C4.54705 11.784 4.47594 11.8164 4.41665 11.8652C4.35736 11.9141 4.31198 11.9777 4.28507 12.0496L2.01269 18.137C1.79569 18.697 2.38107 19.2307 2.91832 18.9621L18.6683 11.0871C18.7774 11.0326 18.8692 10.9488 18.9333 10.8451C18.9974 10.7414 19.0314 10.6219 19.0314 10.5C19.0314 10.378 18.9974 10.2585 18.9333 10.1548C18.8692 10.0511 18.7774 9.96733 18.6683 9.91286L2.91832 2.03786C2.38107 1.76923 1.79569 2.30386 2.01269 2.86298L4.28594 8.95036C4.31273 9.02247 4.35806 9.08624 4.41736 9.13525C4.47665 9.18425 4.54782 9.21676 4.62369 9.22948L11.2142 10.3276C11.2548 10.3347 11.2915 10.3559 11.318 10.3874C11.3445 10.4189 11.359 10.4588 11.359 10.5C11.359 10.5412 11.3445 10.581 11.318 10.6125C11.2915 10.6441 11.2548 10.6653 11.2142 10.6724H11.2133Z" fill="#FDFDFD"/>
</svg>
