<?xml version="1.0" encoding="utf-8"?>
<svg xmlns="http://www.w3.org/2000/svg" xmlns:xlink="http://www.w3.org/1999/xlink" style="margin: auto; background: none; display: block; shape-rendering: auto;" width="221px" height="221px" viewBox="0 0 100 100" preserveAspectRatio="xMidYMid">
<g transform="rotate(0 50 50)">
  <rect x="47" y="20.5" rx="3" ry="5.5" width="6" height="11" fill="#1d3f72">
    <animate attributeName="opacity" values="1;0" keyTimes="0;1" dur="0.8474576271186441s" begin="-0.8071025020177564s" repeatCount="indefinite"></animate>
  </rect>
</g><g transform="rotate(17.142857142857142 50 50)">
  <rect x="47" y="20.5" rx="3" ry="5.5" width="6" height="11" fill="#1d3f72">
    <animate attributeName="opacity" values="1;0" keyTimes="0;1" dur="0.8474576271186441s" begin="-0.7667473769168686s" repeatCount="indefinite"></animate>
  </rect>
</g><g transform="rotate(34.285714285714285 50 50)">
  <rect x="47" y="20.5" rx="3" ry="5.5" width="6" height="11" fill="#1d3f72">
    <animate attributeName="opacity" values="1;0" keyTimes="0;1" dur="0.8474576271186441s" begin="-0.7263922518159807s" repeatCount="indefinite"></animate>
  </rect>
</g><g transform="rotate(51.42857142857143 50 50)">
  <rect x="47" y="20.5" rx="3" ry="5.5" width="6" height="11" fill="#1d3f72">
    <animate attributeName="opacity" values="1;0" keyTimes="0;1" dur="0.8474576271186441s" begin="-0.6860371267150929s" repeatCount="indefinite"></animate>
  </rect>
</g><g transform="rotate(68.57142857142857 50 50)">
  <rect x="47" y="20.5" rx="3" ry="5.5" width="6" height="11" fill="#1d3f72">
    <animate attributeName="opacity" values="1;0" keyTimes="0;1" dur="0.8474576271186441s" begin="-0.6456820016142051s" repeatCount="indefinite"></animate>
  </rect>
</g><g transform="rotate(85.71428571428571 50 50)">
  <rect x="47" y="20.5" rx="3" ry="5.5" width="6" height="11" fill="#1d3f72">
    <animate attributeName="opacity" values="1;0" keyTimes="0;1" dur="0.8474576271186441s" begin="-0.6053268765133173s" repeatCount="indefinite"></animate>
  </rect>
</g><g transform="rotate(102.85714285714286 50 50)">
  <rect x="47" y="20.5" rx="3" ry="5.5" width="6" height="11" fill="#1d3f72">
    <animate attributeName="opacity" values="1;0" keyTimes="0;1" dur="0.8474576271186441s" begin="-0.5649717514124294s" repeatCount="indefinite"></animate>
  </rect>
</g><g transform="rotate(120 50 50)">
  <rect x="47" y="20.5" rx="3" ry="5.5" width="6" height="11" fill="#1d3f72">
    <animate attributeName="opacity" values="1;0" keyTimes="0;1" dur="0.8474576271186441s" begin="-0.5246166263115416s" repeatCount="indefinite"></animate>
  </rect>
</g><g transform="rotate(137.14285714285714 50 50)">
  <rect x="47" y="20.5" rx="3" ry="5.5" width="6" height="11" fill="#1d3f72">
    <animate attributeName="opacity" values="1;0" keyTimes="0;1" dur="0.8474576271186441s" begin="-0.4842615012106538s" repeatCount="indefinite"></animate>
  </rect>
</g><g transform="rotate(154.28571428571428 50 50)">
  <rect x="47" y="20.5" rx="3" ry="5.5" width="6" height="11" fill="#1d3f72">
    <animate attributeName="opacity" values="1;0" keyTimes="0;1" dur="0.8474576271186441s" begin="-0.44390637610976597s" repeatCount="indefinite"></animate>
  </rect>
</g><g transform="rotate(171.42857142857142 50 50)">
  <rect x="47" y="20.5" rx="3" ry="5.5" width="6" height="11" fill="#1d3f72">
    <animate attributeName="opacity" values="1;0" keyTimes="0;1" dur="0.8474576271186441s" begin="-0.4035512510088782s" repeatCount="indefinite"></animate>
  </rect>
</g><g transform="rotate(188.57142857142858 50 50)">
  <rect x="47" y="20.5" rx="3" ry="5.5" width="6" height="11" fill="#1d3f72">
    <animate attributeName="opacity" values="1;0" keyTimes="0;1" dur="0.8474576271186441s" begin="-0.36319612590799033s" repeatCount="indefinite"></animate>
  </rect>
</g><g transform="rotate(205.71428571428572 50 50)">
  <rect x="47" y="20.5" rx="3" ry="5.5" width="6" height="11" fill="#1d3f72">
    <animate attributeName="opacity" values="1;0" keyTimes="0;1" dur="0.8474576271186441s" begin="-0.32284100080710254s" repeatCount="indefinite"></animate>
  </rect>
</g><g transform="rotate(222.85714285714286 50 50)">
  <rect x="47" y="20.5" rx="3" ry="5.5" width="6" height="11" fill="#1d3f72">
    <animate attributeName="opacity" values="1;0" keyTimes="0;1" dur="0.8474576271186441s" begin="-0.2824858757062147s" repeatCount="indefinite"></animate>
  </rect>
</g><g transform="rotate(240 50 50)">
  <rect x="47" y="20.5" rx="3" ry="5.5" width="6" height="11" fill="#1d3f72">
    <animate attributeName="opacity" values="1;0" keyTimes="0;1" dur="0.8474576271186441s" begin="-0.2421307506053269s" repeatCount="indefinite"></animate>
  </rect>
</g><g transform="rotate(257.14285714285717 50 50)">
  <rect x="47" y="20.5" rx="3" ry="5.5" width="6" height="11" fill="#1d3f72">
    <animate attributeName="opacity" values="1;0" keyTimes="0;1" dur="0.8474576271186441s" begin="-0.2017756255044391s" repeatCount="indefinite"></animate>
  </rect>
</g><g transform="rotate(274.2857142857143 50 50)">
  <rect x="47" y="20.5" rx="3" ry="5.5" width="6" height="11" fill="#1d3f72">
    <animate attributeName="opacity" values="1;0" keyTimes="0;1" dur="0.8474576271186441s" begin="-0.16142050040355127s" repeatCount="indefinite"></animate>
  </rect>
</g><g transform="rotate(291.42857142857144 50 50)">
  <rect x="47" y="20.5" rx="3" ry="5.5" width="6" height="11" fill="#1d3f72">
    <animate attributeName="opacity" values="1;0" keyTimes="0;1" dur="0.8474576271186441s" begin="-0.12106537530266345s" repeatCount="indefinite"></animate>
  </rect>
</g><g transform="rotate(308.57142857142856 50 50)">
  <rect x="47" y="20.5" rx="3" ry="5.5" width="6" height="11" fill="#1d3f72">
    <animate attributeName="opacity" values="1;0" keyTimes="0;1" dur="0.8474576271186441s" begin="-0.08071025020177564s" repeatCount="indefinite"></animate>
  </rect>
</g><g transform="rotate(325.7142857142857 50 50)">
  <rect x="47" y="20.5" rx="3" ry="5.5" width="6" height="11" fill="#1d3f72">
    <animate attributeName="opacity" values="1;0" keyTimes="0;1" dur="0.8474576271186441s" begin="-0.04035512510088782s" repeatCount="indefinite"></animate>
  </rect>
</g><g transform="rotate(342.85714285714283 50 50)">
  <rect x="47" y="20.5" rx="3" ry="5.5" width="6" height="11" fill="#1d3f72">
    <animate attributeName="opacity" values="1;0" keyTimes="0;1" dur="0.8474576271186441s" begin="0s" repeatCount="indefinite"></animate>
  </rect>
</g>
<!-- [ldio] generated by https://loading.io/ --></svg>