<svg width="40" height="40" viewBox="0 0 40 40" fill="none" xmlns="http://www.w3.org/2000/svg">
<path d="M20.5001 20.3668C21.3894 19.5971 22.1027 18.645 22.5915 17.5752C23.0804 16.5054 23.3334 15.343 23.3334 14.1668C23.3334 11.9567 22.4554 9.83708 20.8926 8.27427C19.3298 6.71147 17.2102 5.8335 15.0001 5.8335C12.7899 5.8335 10.6703 6.71147 9.10752 8.27427C7.54472 9.83708 6.66675 11.9567 6.66675 14.1668C6.66674 15.343 6.91975 16.5054 7.40862 17.5752C7.8975 18.645 8.61079 19.5971 9.50008 20.3668C7.16698 21.4233 5.18752 23.1294 3.79838 25.2811C2.40924 27.4328 1.6692 29.939 1.66675 32.5002C1.66675 32.9422 1.84234 33.3661 2.1549 33.6787C2.46746 33.9912 2.89139 34.1668 3.33341 34.1668C3.77544 34.1668 4.19937 33.9912 4.51193 33.6787C4.82449 33.3661 5.00008 32.9422 5.00008 32.5002C5.00008 29.848 6.05365 27.3045 7.92901 25.4291C9.80438 23.5537 12.3479 22.5002 15.0001 22.5002C17.6522 22.5002 20.1958 23.5537 22.0711 25.4291C23.9465 27.3045 25.0001 29.848 25.0001 32.5002C25.0001 32.9422 25.1757 33.3661 25.4882 33.6787C25.8008 33.9912 26.2247 34.1668 26.6667 34.1668C27.1088 34.1668 27.5327 33.9912 27.8453 33.6787C28.1578 33.3661 28.3334 32.9422 28.3334 32.5002C28.331 29.939 27.5909 27.4328 26.2018 25.2811C24.8126 23.1294 22.8332 21.4233 20.5001 20.3668ZM15.0001 19.1668C14.0112 19.1668 13.0445 18.8736 12.2222 18.3242C11.4 17.7748 10.7591 16.9939 10.3807 16.0802C10.0022 15.1666 9.90323 14.1613 10.0962 13.1914C10.2891 12.2215 10.7653 11.3306 11.4645 10.6313C12.1638 9.93203 13.0547 9.45583 14.0246 9.2629C14.9945 9.06998 15.9999 9.16899 16.9135 9.54743C17.8271 9.92587 18.608 10.5667 19.1574 11.389C19.7068 12.2112 20.0001 13.1779 20.0001 14.1668C20.0001 15.4929 19.4733 16.7647 18.5356 17.7024C17.5979 18.64 16.3262 19.1668 15.0001 19.1668ZM31.2334 19.7002C32.3 18.499 32.9968 17.0153 33.2397 15.4274C33.4827 13.8395 33.2616 12.2153 32.603 10.7502C31.9444 9.28504 30.8764 8.04149 29.5275 7.1692C28.1787 6.29691 26.6064 5.83307 25.0001 5.8335C24.5581 5.8335 24.1341 6.00909 23.8216 6.32165C23.509 6.63421 23.3334 7.05814 23.3334 7.50016C23.3334 7.94219 23.509 8.36611 23.8216 8.67867C24.1341 8.99123 24.5581 9.16683 25.0001 9.16683C26.3262 9.16683 27.5979 9.69361 28.5356 10.6313C29.4733 11.569 30.0001 12.8407 30.0001 14.1668C29.9977 15.0422 29.7656 15.9017 29.3269 16.6592C28.8881 17.4167 28.2582 18.0458 27.5001 18.4835C27.253 18.626 27.0466 18.8296 26.9007 19.0747C26.7548 19.3199 26.6742 19.5983 26.6667 19.8835C26.6598 20.1664 26.725 20.4465 26.8562 20.6973C26.9874 20.948 27.1803 21.1613 27.4167 21.3168L28.0667 21.7502L28.2834 21.8668C30.2924 22.8197 31.9873 24.3268 33.1684 26.2107C34.3495 28.0946 34.9677 30.2767 34.9501 32.5002C34.9501 32.9422 35.1257 33.3661 35.4382 33.6787C35.7508 33.9912 36.1747 34.1668 36.6167 34.1668C37.0588 34.1668 37.4827 33.9912 37.7953 33.6787C38.1078 33.3661 38.2834 32.9422 38.2834 32.5002C38.297 29.9425 37.6565 27.4239 36.4225 25.1836C35.1886 22.9433 33.4023 21.0557 31.2334 19.7002Z" fill="#414BBE"/>
</svg>
